<svg width="254" height="36" viewBox="0 0 254 36" fill="none" xmlns="http://www.w3.org/2000/svg">
<path d="M75.9507 22.5V9.828H71.6547V6.852H83.7987V9.828H79.5027V22.5H75.9507ZM89.2105 22.788C88.2185 22.788 87.2825 22.548 86.4025 22.068C85.5225 21.572 84.8025 20.86 84.2425 19.932C83.6985 18.988 83.4265 17.86 83.4265 16.548C83.4265 15.236 83.6985 14.116 84.2425 13.188C84.8025 12.244 85.5225 11.532 86.4025 11.052C87.2825 10.556 88.2185 10.308 89.2105 10.308C90.2185 10.308 91.1625 10.556 92.0425 11.052C92.9225 11.532 93.6345 12.244 94.1785 13.188C94.7385 14.116 95.0185 15.236 95.0185 16.548C95.0185 17.86 94.7385 18.988 94.1785 19.932C93.6345 20.86 92.9225 21.572 92.0425 22.068C91.1625 22.548 90.2185 22.788 89.2105 22.788ZM89.2105 19.932C89.7065 19.932 90.1145 19.796 90.4345 19.524C90.7705 19.252 91.0105 18.86 91.1545 18.348C91.3145 17.836 91.3945 17.236 91.3945 16.548C91.3945 15.86 91.3145 15.26 91.1545 14.748C91.0105 14.236 90.7705 13.844 90.4345 13.572C90.1145 13.284 89.7065 13.14 89.2105 13.14C88.7305 13.14 88.3225 13.284 87.9865 13.572C87.6665 13.844 87.4265 14.236 87.2665 14.748C87.1225 15.26 87.0505 15.86 87.0505 16.548C87.0505 17.236 87.1225 17.836 87.2665 18.348C87.4265 18.86 87.6665 19.252 87.9865 19.524C88.3225 19.796 88.7305 19.932 89.2105 19.932ZM97.435 22.5V10.596H100.315L100.555 12.108H100.651C101.147 11.628 101.675 11.212 102.235 10.86C102.795 10.492 103.467 10.308 104.251 10.308C105.099 10.308 105.787 10.484 106.315 10.836C106.843 11.172 107.251 11.668 107.539 12.324C108.067 11.764 108.627 11.292 109.219 10.908C109.811 10.508 110.499 10.308 111.283 10.308C112.579 10.308 113.523 10.74 114.115 11.604C114.707 12.452 115.003 13.62 115.003 15.108V22.5H111.475V15.564C111.475 14.7 111.355 14.108 111.115 13.788C110.891 13.468 110.523 13.308 110.011 13.308C109.707 13.308 109.387 13.404 109.051 13.596C108.715 13.772 108.355 14.06 107.971 14.46V22.5H104.467V15.564C104.467 14.7 104.347 14.108 104.107 13.788C103.867 13.468 103.491 13.308 102.979 13.308C102.371 13.308 101.699 13.692 100.963 14.46V22.5H97.435ZM118.013 22.5V10.596H121.541V22.5H118.013ZM119.765 8.844C119.173 8.844 118.693 8.676 118.325 8.34C117.957 8.004 117.773 7.556 117.773 6.996C117.773 6.436 117.957 5.988 118.325 5.652C118.693 5.316 119.173 5.148 119.765 5.148C120.357 5.148 120.837 5.316 121.205 5.652C121.573 5.988 121.757 6.436 121.757 6.996C121.757 7.556 121.573 8.004 121.205 8.34C120.837 8.676 120.357 8.844 119.765 8.844Z" fill="#111111"/>
<path d="M129.739 22.5V6.852H133.603L136.123 13.812C136.283 14.276 136.435 14.756 136.579 15.252C136.723 15.732 136.875 16.212 137.035 16.692H137.131C137.291 16.212 137.435 15.732 137.563 15.252C137.707 14.756 137.859 14.276 138.019 13.812L140.467 6.852H144.331V22.5H141.115V16.764C141.115 16.252 141.139 15.652 141.187 14.964C141.251 14.26 141.315 13.564 141.379 12.876C141.459 12.172 141.523 11.564 141.571 11.052H141.475L140.203 15.156L137.971 21.132H136.027L133.795 15.156L132.547 11.052H132.451C132.515 11.564 132.579 12.172 132.643 12.876C132.707 13.564 132.763 14.26 132.811 14.964C132.875 15.652 132.907 16.252 132.907 16.764V22.5H129.739ZM153.06 22.788C151.924 22.788 150.9 22.54 149.988 22.044C149.076 21.548 148.356 20.836 147.828 19.908C147.3 18.98 147.036 17.86 147.036 16.548C147.036 15.268 147.3 14.164 147.828 13.236C148.372 12.292 149.068 11.572 149.916 11.076C150.78 10.564 151.692 10.308 152.652 10.308C153.772 10.308 154.708 10.556 155.46 11.052C156.228 11.548 156.796 12.228 157.164 13.092C157.532 13.956 157.716 14.932 157.716 16.02C157.716 16.324 157.7 16.628 157.668 16.932C157.636 17.22 157.604 17.436 157.572 17.58H149.796L149.748 15.252H154.716C154.716 14.58 154.556 14.036 154.236 13.62C153.932 13.204 153.428 12.996 152.724 12.996C152.34 12.996 151.956 13.108 151.572 13.332C151.188 13.556 150.868 13.924 150.612 14.436C150.372 14.948 150.268 15.652 150.3 16.548C150.316 17.46 150.484 18.18 150.804 18.708C151.124 19.22 151.524 19.58 152.004 19.788C152.5 19.996 153.012 20.1 153.54 20.1C154.004 20.1 154.444 20.036 154.86 19.908C155.292 19.78 155.724 19.588 156.156 19.332L157.284 21.444C156.676 21.876 155.996 22.212 155.244 22.452C154.492 22.676 153.764 22.788 153.06 22.788ZM163.658 22.788C162.874 22.788 162.066 22.636 161.234 22.332C160.402 22.028 159.69 21.588 159.098 21.012L160.586 19.02C161.13 19.452 161.666 19.756 162.194 19.932C162.738 20.092 163.258 20.172 163.754 20.172C164.282 20.172 164.666 20.084 164.906 19.908C165.146 19.716 165.266 19.46 165.266 19.14C165.266 18.884 165.154 18.668 164.93 18.492C164.722 18.316 164.442 18.164 164.09 18.036C163.754 17.892 163.37 17.74 162.938 17.58C162.362 17.372 161.834 17.108 161.354 16.788C160.874 16.468 160.49 16.084 160.202 15.636C159.914 15.188 159.77 14.652 159.77 14.028C159.77 12.908 160.186 12.012 161.018 11.34C161.85 10.652 162.946 10.308 164.306 10.308C165.17 10.308 165.954 10.452 166.658 10.74C167.378 11.012 167.994 11.372 168.506 11.82L166.994 13.788C166.562 13.484 166.13 13.268 165.698 13.14C165.266 12.996 164.834 12.924 164.402 12.924C163.954 12.924 163.618 13.012 163.394 13.188C163.17 13.348 163.058 13.572 163.058 13.86C163.058 14.084 163.13 14.276 163.274 14.436C163.434 14.596 163.682 14.748 164.018 14.892C164.354 15.02 164.77 15.164 165.266 15.324C165.874 15.516 166.426 15.772 166.922 16.092C167.434 16.412 167.834 16.804 168.122 17.268C168.41 17.732 168.554 18.292 168.554 18.948C168.554 19.668 168.362 20.316 167.978 20.892C167.61 21.468 167.066 21.932 166.346 22.284C165.626 22.62 164.73 22.788 163.658 22.788ZM170.794 22.5V5.7H174.322V9.78L174.154 11.94C174.618 11.54 175.146 11.172 175.738 10.836C176.33 10.484 177.026 10.308 177.826 10.308C179.138 10.308 180.082 10.74 180.658 11.604C181.234 12.452 181.522 13.62 181.522 15.108V22.5H177.994V15.564C177.994 14.7 177.874 14.108 177.634 13.788C177.41 13.468 177.034 13.308 176.506 13.308C176.074 13.308 175.698 13.412 175.378 13.62C175.058 13.812 174.706 14.092 174.322 14.46V22.5H170.794Z" fill="#FF0083"/>
</svg>
