<svg width="52" height="52" viewBox="0 0 52 52" fill="none" xmlns="http://www.w3.org/2000/svg">
<path d="M25.5576 8.63772C34.7839 8.63772 42.305 15.9488 42.6522 25.1017L50.7459 30.0776C50.9877 28.6634 51.1132 27.2111 51.1132 25.7277C51.1132 11.5971 39.6725 0.141846 25.5557 0.141846C11.439 0.141846 0.00012207 11.5989 0.00012207 25.7296C0.00012207 28.789 0.536432 31.7247 1.52179 34.442C2.49624 37.1375 3.91064 39.62 5.67773 41.8077L12.9443 37.3395L21.3234 32.187V51.7887H29.5699V32.0287L38.1854 37.3268L45.4501 41.7949C47.2154 39.6073 48.628 37.1229 49.6006 34.4256L42.1759 29.8592L33.6422 24.6121L25.5757 19.6525L25.5576 19.6634L17.5093 24.6121L8.94468 29.8774C8.61926 28.5597 8.44655 27.1856 8.44655 25.7678C8.44655 16.3073 16.1076 8.63954 25.5557 8.63954L25.5576 8.63772ZM25.5576 29.5607L25.5739 29.5698L25.5576 29.5807V29.5589V29.5607Z" fill="#FF0083"/>
</svg>
