<svg width="233" height="61" viewBox="0 0 233 61" fill="none" xmlns="http://www.w3.org/2000/svg">
<path d="M29.7745 9.89773C40.5233 9.89773 49.2854 18.4151 49.6899 29.0783L59.1191 34.8753C59.4008 33.2278 59.547 31.5358 59.547 29.8077C59.547 13.3454 46.2185 0 29.7724 0C13.3263 0 0 13.3475 0 29.8098C0 33.3741 0.624804 36.7942 1.77275 39.9599C2.90798 43.1001 4.55577 45.9922 6.61445 48.5409L15.08 43.3355L24.8418 37.3328V60.1688H34.4489V37.1483L44.486 43.3206L52.9495 48.526C55.006 45.9774 56.6517 43.0831 57.7848 39.9408L49.135 34.6209L39.1932 28.5079L29.7957 22.73L29.7745 22.7427L20.3983 28.5079L10.4205 34.6421C10.0413 33.1069 9.84013 31.5061 9.84013 29.8544C9.84013 18.8328 18.7653 9.89985 29.7724 9.89985L29.7745 9.89773ZM29.7745 34.2731L29.7936 34.2837L29.7745 34.2965V34.271V34.2731Z" fill="#FF0083"/>
<path d="M221.111 3.03878C222.485 1.66486 224.123 0.977905 226.026 0.977905C227.928 0.977905 229.566 1.66486 230.94 3.03878C232.314 4.38628 233.001 5.99799 233.001 7.87391C233.001 9.77626 232.314 11.4144 230.94 12.7883C229.566 14.1622 227.928 14.8492 226.026 14.8492C224.123 14.8492 222.485 14.1622 221.111 12.7883C219.737 11.4144 219.051 9.77626 219.051 7.87391C219.051 5.99799 219.737 4.38628 221.111 3.03878ZM220.319 20.2788H231.772V60.1488H220.319V20.2788Z" fill="#FF0083"/>
<path d="M196.795 19.5412C201.604 19.5412 205.514 20.9944 208.526 23.9007C211.565 26.8071 213.084 30.6514 213.084 35.4337V60.2039H201.551V38.1287C201.551 35.7772 200.93 33.9145 199.688 32.5406C198.447 31.1666 196.795 30.4797 194.734 30.4797C192.7 30.4797 190.982 31.1534 189.582 32.5009C188.208 33.822 187.521 35.6979 187.521 38.1287V60.2039H176.068V38.1287C176.068 35.7772 175.447 33.9145 174.205 32.5406C172.963 31.1666 171.285 30.4797 169.172 30.4797C167.163 30.4797 165.486 31.1402 164.138 32.4613C162.791 33.7824 162.117 35.6715 162.117 38.1287V60.2039H150.663V20.3338H162.117V25.1293C164.68 21.4039 168.471 19.5412 173.491 19.5412C178.749 19.5412 182.514 21.4832 184.787 25.3671C185.976 23.6233 187.653 22.223 189.82 21.1661C191.986 20.0828 194.312 19.5412 196.795 19.5412Z" fill="#FF0083"/>
<path d="M124.367 18.564C127.246 18.564 129.955 19.0924 132.491 20.1493C135.054 21.2061 137.247 22.6593 139.07 24.5088C140.92 26.3319 142.373 28.5381 143.43 31.1274C144.513 33.6903 145.055 36.4249 145.055 39.3312C145.055 43.2152 144.143 46.7425 142.32 49.913C140.523 53.0836 138.04 55.5672 134.869 57.3639C131.725 59.1341 128.224 60.0193 124.367 60.0193C118.475 60.0193 113.547 58.0509 109.584 54.1141C105.62 50.1773 103.639 45.2497 103.639 39.3312C103.639 33.4128 105.62 28.472 109.584 24.5088C113.547 20.5456 118.475 18.564 124.367 18.564ZM124.367 29.5025C121.645 29.5025 119.373 30.4404 117.55 32.3163C115.753 34.1658 114.855 36.5042 114.855 39.3312C114.855 42.0791 115.753 44.391 117.55 46.2669C119.373 48.1428 121.645 49.0808 124.367 49.0808C127.035 49.0808 129.281 48.1428 131.104 46.2669C132.927 44.391 133.839 42.0791 133.839 39.3312C133.839 36.5042 132.927 34.1658 131.104 32.3163C129.307 30.4404 127.061 29.5025 124.367 29.5025Z" fill="#FF0083"/>
<path d="M101.597 30.6441H91.8083V43.2075C91.8083 45.2684 92.4292 46.8141 93.671 47.8445C94.9392 48.8749 96.617 49.3902 98.7043 49.3902C99.814 49.3902 100.778 49.2845 101.597 49.0731V59.6153C99.9593 60.038 98.123 60.2494 96.0886 60.2494C91.3063 60.2494 87.4884 58.7566 84.6349 55.7709C81.7813 52.7853 80.3546 48.6503 80.3546 43.3661V30.6441H72.9434V19.7453H80.3546V9.28235H91.8083V19.7453H101.597V30.6441Z" fill="#FF0083"/>
</svg>
