<svg width="18" height="21" viewBox="0 0 18 21" fill="none" xmlns="http://www.w3.org/2000/svg">
<path d="M17 20.2493H3C2.20435 20.2493 1.44129 19.9333 0.87868 19.3706C0.316071 18.808 0 18.045 0 17.2493V3.24933C0 2.45368 0.316071 1.69062 0.87868 1.12801C1.44129 0.565399 2.20435 0.249329 3 0.249329H17C17.2652 0.249329 17.5196 0.354685 17.7071 0.542222C17.8946 0.729758 18 0.984112 18 1.24933V19.2493C18 19.5145 17.8946 19.7689 17.7071 19.9564C17.5196 20.144 17.2652 20.2493 17 20.2493ZM16 18.2493V16.2493H3C2.73478 16.2493 2.48043 16.3547 2.29289 16.5422C2.10536 16.7298 2 16.9841 2 17.2493C2 17.5145 2.10536 17.7689 2.29289 17.9564C2.48043 18.144 2.73478 18.2493 3 18.2493H16ZM9 8.24933C9.53043 8.24933 10.0391 8.03861 10.4142 7.66354C10.7893 7.28847 11 6.77976 11 6.24933C11 5.7189 10.7893 5.21019 10.4142 4.83511C10.0391 4.46004 9.53043 4.24933 9 4.24933C8.46957 4.24933 7.96086 4.46004 7.58579 4.83511C7.21071 5.21019 7 5.7189 7 6.24933C7 6.77976 7.21071 7.28847 7.58579 7.66354C7.96086 8.03861 8.46957 8.24933 9 8.24933ZM6 12.2493H12C12 11.4537 11.6839 10.6906 11.1213 10.128C10.5587 9.5654 9.79565 9.24933 9 9.24933C8.20435 9.24933 7.44129 9.5654 6.87868 10.128C6.31607 10.6906 6 11.4537 6 12.2493Z" fill="black"/>
</svg>
