<svg width="22" height="23" viewBox="0 0 22 23" fill="none" xmlns="http://www.w3.org/2000/svg">
<path d="M7.822 2.98733C7.05219 4.65839 6.81303 6.52524 7.13672 8.33639C7.46041 10.1475 8.33141 11.816 9.63238 13.117C10.9333 14.4179 12.6018 15.2889 14.4129 15.6126C16.2241 15.9363 18.0909 15.6971 19.762 14.9273C18.768 19.4033 14.775 22.7493 10 22.7493C4.477 22.7493 0 18.2723 0 12.7493C0 7.97433 3.346 3.98133 7.822 2.98733ZM16.164 3.04033L17 3.24933V4.24933L16.164 4.45833C15.8124 4.54626 15.4913 4.72808 15.235 4.98436C14.9788 5.24063 14.7969 5.56173 14.709 5.91333L14.5 6.74933H13.5L13.291 5.91333C13.2031 5.56173 13.0212 5.24063 12.765 4.98436C12.5087 4.72808 12.1876 4.54626 11.836 4.45833L11 4.24933V3.24933L11.836 3.04033C12.1874 2.95224 12.5083 2.77035 12.7644 2.51408C13.0205 2.25782 13.2021 1.9368 13.29 1.58533L13.5 0.749329H14.5L14.709 1.58533C14.7969 1.93693 14.9788 2.25802 15.235 2.5143C15.4913 2.77058 15.8124 2.9524 16.164 3.04033ZM21.164 8.04033L22 8.24933V9.24933L21.164 9.45833C20.8124 9.54626 20.4913 9.72808 20.235 9.98436C19.9788 10.2406 19.7969 10.5617 19.709 10.9133L19.5 11.7493H18.5L18.291 10.9133C18.2031 10.5617 18.0212 10.2406 17.765 9.98436C17.5087 9.72808 17.1876 9.54626 16.836 9.45833L16 9.24933V8.24933L16.836 8.04033C17.1876 7.9524 17.5087 7.77058 17.765 7.5143C18.0212 7.25802 18.2031 6.93693 18.291 6.58533L18.5 5.74933H19.5L19.709 6.58533C19.7969 6.93693 19.9788 7.25802 20.235 7.5143C20.4913 7.77058 20.8124 7.9524 21.164 8.04033Z" fill="black"/>
</svg>
