<svg width="20" height="21" viewBox="0 0 20 21" fill="none" xmlns="http://www.w3.org/2000/svg">
<path d="M8 17.9973V14.6493C8 13.3663 8.995 12.3573 10.467 11.7813C9.5177 11.4283 8.51283 11.2481 7.5 11.2493C5.61 11.2493 3.864 11.8663 2.453 12.9093C2.89051 14.1467 3.62509 15.2577 4.59225 16.1448C5.55941 17.0319 6.72957 17.6681 8 17.9973ZM16.88 14.3353C16.485 13.8023 15.17 13.2493 13.5 13.2493C11.494 13.2493 10 14.0463 10 14.6493V18.2493C11.3878 18.2501 12.752 17.8896 13.9583 17.2034C15.1646 16.5171 16.1715 15.5287 16.88 14.3353ZM7.55 9.74933C8.14674 9.74933 8.71903 9.51228 9.14099 9.09032C9.56295 8.66836 9.8 8.09607 9.8 7.49933C9.8 6.90259 9.56295 6.3303 9.14099 5.90834C8.71903 5.48638 8.14674 5.24933 7.55 5.24933C6.95326 5.24933 6.38097 5.48638 5.95901 5.90834C5.53705 6.3303 5.3 6.90259 5.3 7.49933C5.3 8.09607 5.53705 8.66836 5.95901 9.09032C6.38097 9.51228 6.95326 9.74933 7.55 9.74933ZM13.5 10.7493C14.0304 10.7493 14.5391 10.5386 14.9142 10.1635C15.2893 9.78847 15.5 9.27976 15.5 8.74933C15.5 8.2189 15.2893 7.71019 14.9142 7.33512C14.5391 6.96004 14.0304 6.74933 13.5 6.74933C12.9696 6.74933 12.4609 6.96004 12.0858 7.33512C11.7107 7.71019 11.5 8.2189 11.5 8.74933C11.5 9.27976 11.7107 9.78847 12.0858 10.1635C12.4609 10.5386 12.9696 10.7493 13.5 10.7493ZM10 20.2493C4.477 20.2493 0 15.7723 0 10.2493C0 4.72633 4.477 0.249329 10 0.249329C15.523 0.249329 20 4.72633 20 10.2493C20 15.7723 15.523 20.2493 10 20.2493Z" fill="#D3D3D3"/>
</svg>
