<svg width="22" height="21" viewBox="0 0 22 21" fill="none" xmlns="http://www.w3.org/2000/svg">
<path d="M19 19.2493C19 19.5145 18.8946 19.7689 18.7071 19.9564C18.5196 20.144 18.2652 20.2493 18 20.2493H4C3.73478 20.2493 3.48043 20.144 3.29289 19.9564C3.10536 19.7689 3 19.5145 3 19.2493V10.2493H0L10.327 0.861329C10.5111 0.693806 10.7511 0.600971 11 0.600971C11.2489 0.600971 11.4889 0.693806 11.673 0.861329L22 10.2493H19V19.2493ZM7.592 13.0573L6.601 13.6293L7.601 15.3623L8.594 14.7893C8.99236 15.166 9.47361 15.4438 9.999 15.6003V16.7453H12.001V15.5993C12.5263 15.4431 13.0075 15.1656 13.406 14.7893L14.398 15.3613L15.4 13.6293L14.409 13.0573C14.5355 12.5247 14.5355 11.9699 14.409 11.4373L15.4 10.8643L14.4 9.13133L13.407 9.70433C13.008 9.32778 12.526 9.05032 12 8.89433V7.74933H9.998V8.89333C9.47262 9.0499 8.99136 9.32769 8.593 9.70433L7.601 9.13133L6.6 10.8653L7.591 11.4373C7.46446 11.9699 7.46446 12.5247 7.591 13.0573H7.592ZM11 13.7473C10.803 13.7475 10.6078 13.7088 10.4257 13.6335C10.2436 13.5582 10.0781 13.4478 9.93869 13.3085C9.79927 13.1693 9.68863 13.004 9.6131 12.822C9.53757 12.64 9.49863 12.4449 9.4985 12.2478C9.49837 12.0508 9.53705 11.8556 9.61234 11.6735C9.68762 11.4914 9.79804 11.3259 9.93728 11.1865C10.0765 11.0471 10.2419 10.9365 10.4239 10.8609C10.6059 10.7854 10.801 10.7465 10.998 10.7463C11.3958 10.7461 11.7775 10.9038 12.059 11.185C12.3404 11.4661 12.4987 11.8475 12.499 12.2453C12.4993 12.6432 12.3415 13.0248 12.0604 13.3063C11.7793 13.5878 11.3978 13.7461 11 13.7463V13.7473Z" fill="#D3D3D3"/>
</svg>
